# xmcd
#
# Track frame offsets:
#	150
#	20239
#	40155
#	59521
#	78898
#	97781
#
# Disc length: 1559 seconds
#
# Revision: 0
# Processed by: cddbd v1.5.2PL0 Copyright (c) Steve Scherf et al.
# Submitted via: EasyCDDAExtractor 16.0.6.1
#
DISCID=41061506
DTITLE=Bagamix - Vol 2
DYEAR=1999
DGENRE=Zouk
TTITLE0=Escale
TTITLE1=Palé
TTITLE2=Pov' Girl
TTITLE3=Amour, Amor
TTITLE4=Melancolie
TTITLE5=Enfant d'amour
EXTD=
EXTT0=
EXTT1=
EXTT2=
EXTT3=
EXTT4=
EXTT5=
PLAYORDER=
